# xmcd
#
# Track frame offsets:
#	150
#	10335
#	23127
#	35140
#	52425
#	64037
#	75080
#	86600
#	99025
#	109750
#	122027
#	135632
#	146325
#	163132
#	175900
#
# Disc length: 2465 seconds
#
# Revision: 1
# Processed by: cddbd v1.4PL0 Copyright (c) Steve Scherf et al.
# Submitted via: audiograbber 1.82.01
#
DISCID=c1099f0f
DTITLE=John Lee Hooker - I'm In The Mood
DYEAR=1900
DGENRE=Blues
TTITLE0=Dimples
TTITLE1=Hobo Blues
TTITLE2=Little Wheel
TTITLE3=Blues Before Sunrise
TTITLE4=Let's Make It
TTITLE5=No Shoes
TTITLE6=Boom Boom
TTITLE7=I'm In The Mood
TTITLE8=Maudie
TTITLE9=Crawlin' Kingsnake
TTITLE10=I'm Goin' Upstairs
TTITLE11=Want Ad Blues
TTITLE12=My First Wife Left Me
TTITLE13=I'm So Excited
TTITLE14=Onions
EXTD=
EXTT0=
EXTT1=
EXTT2=
EXTT3=
EXTT4=
EXTT5=
EXTT6=
EXTT7=
EXTT8=
EXTT9=
EXTT10=
EXTT11=
EXTT12=
EXTT13=
EXTT14=
PLAYORDER=
